<svg xmlns="http://www.w3.org/2000/svg" xmlns:xlink="http://www.w3.org/1999/xlink" viewBox="0 0 100 100">
    <defs>
        <style>.a{fill:#2684ff;}.b{fill:url(#a);}.c{fill:url(#b);}</style>
        <linearGradient id="a" x1="-353.22" y1="47" x2="-362.23" y2="38"
                        gradientTransform="matrix(1.74, 0, 0, -1.74, 659.01, 107.71)" gradientUnits="userSpaceOnUse">
            <stop offset="0" stop-color="#0052cc"/>
            <stop offset="1" stop-color="#2684ff"/>
        </linearGradient>
        <linearGradient id="b" x1="-346.36" y1="19.39" x2="-337.37" y2="28.38" xlink:href="#a"/>
    </defs>
    <title>Jira</title>
    <path class="a"
          d="M93.7,47.4,53.9,7.5,50,3.7,6.3,47.4a3.6,3.6,0,0,0,0,5.2L33.7,80,50,96.3,93.7,52.6A3.6,3.6,0,0,0,93.7,47.4ZM50,63.7,36.3,50,50,36.3,63.7,50Z"/>
    <path class="b" d="M50,36.3a23,23,0,0,1-.1-32.5l-30,29.9L36.2,50.1Z"/>
    <path class="c" d="M63.7,50,50,63.7a22.9,22.9,0,0,1,0,32.6l30-30Z"/>
</svg>